<svg xmlns="http://www.w3.org/2000/svg" width="96" height="96" viewBox="0 0 96 96">
  <defs>
    <linearGradient id="tile" x1="0" y1="0" x2="0" y2="1">
      <stop offset="0" stop-color="#4A3C14"/>
      <stop offset="1" stop-color="#171204"/>
    </linearGradient>
  </defs>
  <!-- tile -->
  <path d="M28,4 H68 Q92,4 92,28 V68 Q92,92 68,92 H28 Q4,92 4,68 V28 Q4,4 28,4 Z" fill="url(#tile)"/>
  <path d="M28,4 H68 Q92,4 92,28 V68 Q92,92 68,92 H28 Q4,92 4,68 V28 Q4,4 28,4 Z" fill="none" stroke="#FFFFFF" stroke-opacity="0.16" stroke-width="2"/>
  <!-- top gloss -->
  <path d="M23,10 H73 Q82,10 82,19 Q82,28 73,28 H23 Q14,28 14,19 Q14,10 23,10 Z" fill="#FFFFFF" fill-opacity="0.10"/>
  <!-- sync arrows, bevel underlay -->
  <g transform="translate(0,2)">
    <path d="M70,38 A30,30 0 0 0 26,42" fill="none" stroke="#6B4A12" stroke-width="13" stroke-linecap="round"/>
    <path d="M12,43 L28,34 L28,52 Z" fill="#6B4A12"/>
    <path d="M26,54 A30,30 0 0 0 70,58" fill="none" stroke="#6B4A12" stroke-width="13" stroke-linecap="round"/>
    <path d="M84,53 L68,44 L68,62 Z" fill="#6B4A12"/>
  </g>
  <!-- sync arrows, gold face -->
  <g>
    <path d="M70,38 A30,30 0 0 0 26,42" fill="none" stroke="#F1D493" stroke-width="9" stroke-linecap="round"/>
    <path d="M12,43 L28,34 L28,52 Z" fill="#F1D493"/>
    <path d="M26,54 A30,30 0 0 0 70,58" fill="none" stroke="#F1D493" stroke-width="9" stroke-linecap="round"/>
    <path d="M84,53 L68,44 L68,62 Z" fill="#F1D493"/>
  </g>
  <!-- center dot -->
  <path d="M40,50 a8,8 0 1,0 16,0 a8,8 0 1,0 -16,0" fill="#F1D493" fill-opacity="0.28"/>
  <path d="M43,50 a5,5 0 1,0 10,0 a5,5 0 1,0 -10,0" fill="#F1D493"/>
</svg>
